<svg width="40" height="40" viewBox="0 0 40 40" fill="none" xmlns="http://www.w3.org/2000/svg">
<rect x="5" y="10" width="30" height="25" rx="3.33333" stroke="white" stroke-width="3.33333"/>
<path d="M5 16.6667C5 13.524 5 11.9526 5.97631 10.9763C6.95262 10 8.52397 10 11.6667 10H28.3333C31.476 10 33.0474 10 34.0237 10.9763C35 11.9526 35 13.524 35 16.6667V16.6667H5V16.6667Z" fill="white"/>
<path d="M11.6666 5L11.6666 10" stroke="white" stroke-width="3.33333" stroke-linecap="round"/>
<path d="M28.3333 5L28.3333 10" stroke="white" stroke-width="3.33333" stroke-linecap="round"/>
<rect x="11.6666" y="20" width="6.66667" height="3.33333" rx="0.833333" fill="white"/>
<rect x="11.6666" y="26.6666" width="6.66667" height="3.33333" rx="0.833333" fill="white"/>
<rect x="21.6667" y="20" width="6.66667" height="3.33333" rx="0.833333" fill="white"/>
<rect x="21.6667" y="26.6666" width="6.66667" height="3.33333" rx="0.833333" fill="white"/>
</svg>
