<svg width="40" height="40" viewBox="0 0 40 40" fill="none" xmlns="http://www.w3.org/2000/svg">
<path d="M30 5.00002V5.00002C32.7614 5.00001 35 7.23859 35 10L35 13.5714C35 14.1283 35 14.4067 34.8723 14.61C34.8057 14.716 34.716 14.8057 34.61 14.8723C34.4067 15 34.1283 15 33.5714 15L25 15M30 5.00002V5.00002C27.2386 5.00001 25 7.23859 25 10L25 15M30 5.00002L11.6667 5.00001C8.52397 5.00001 6.95262 5.00001 5.97631 5.97632C5 6.95264 5 8.52398 5 11.6667L5 35L10 33.3333L15 35L20 33.3333L25 35L25 15" stroke="white" stroke-width="3.33333"/>
<path d="M11.6666 11.6666L18.3333 11.6666" stroke="white" stroke-width="3.33333" stroke-linecap="round"/>
<path d="M13.3334 18.3334H11.6667" stroke="white" stroke-width="3.33333" stroke-linecap="round"/>
<path d="M11.6666 25L16.6666 25" stroke="white" stroke-width="3.33333" stroke-linecap="round"/>
</svg>
