<svg xmlns="http://www.w3.org/2000/svg" viewBox="0 0 484.76 702.77"><g id="Layer_2" data-name="Layer 2"><g id="Layer_1-2" data-name="Layer 1"><path id="SvgjsG1847" d="M430.77,352l-.22-.32c-23.63-34.15-45-57.76-58-70.91,16.15-3.87,34.19-6.65,56.31-8.72,21.32-2,33.58-16.94,32-38.94-1.79-25-21-55.89-41-55.89-.32,0-.63,0-.93,0-9,.43-21.53,1-34.24.86-.78-61-30.16-93-45.36-105.48C346.9,60.9,357.79,40.35,353,24,351.2,18,346.66,10.13,335,6c-8.43-2.94-16.56-2.11-23.63,2.36A33.3,33.3,0,0,0,303,16.18a32,32,0,0,0-4.58-6.94c-5.68-6.47-13.5-9.66-22.79-9.2-9.7.48-17.72,4.58-23.16,11.86a34.72,34.72,0,0,0-3.83,6.6,28.25,28.25,0,0,0-5.15-4c-4.64-2.84-12.37-5.51-22.86-2.11-8.35,2.71-14.37,8.23-17.4,16-6.14,15.65,1.81,37,7,48.15A157.12,157.12,0,0,0,192.3,96.64c-24.74-7.35-68.69-2.53-84.79,13.55a9.86,9.86,0,0,0-2.87,7.49c.68,12.55,0,48.62-11.32,64.63-2,2.81-6.9,7.86-12.58,13.68C46.42,231.19-33.73,313.45,15.66,424.21c0,.58-.15,1.18-.19,1.76-2.35,33.71,22,113.72,81.55,178.38,40.69,44.15,112.91,97.06,225.86,98.4l3.42,0c67.32,0,114.11-23.82,139.12-70.84C510.73,546.77,467,404.55,430.77,352Zm-26.49-3.24C331.73,352,290.2,335.25,288,324.19c-1.09-5.6,10.81-20.37,62.67-37.22C359.11,294.88,379.92,315.68,404.28,348.73ZM228.8,86.26A9.84,9.84,0,0,0,230.94,74c-4.69-8.38-13.15-28.79-9.37-38.44.62-1.57,1.72-3.34,5.14-4.44,3.62-1.18,5.42-.53,6.56.18,2.86,1.74,7.94,7.66,12.15,27.62.71,4.86,1.51,8.35,1.79,9.43a9.84,9.84,0,0,0,19.27-3.92c-.53-3.21-1.09-6.24-1.69-9.11-1.49-11-1.49-25,3.49-31.64,1.29-1.72,3.41-3.73,8.35-4,4-.23,5.83,1.16,7,2.51,5.21,5.93,5.85,21.05,4.64,32.86-.6,3.53-.87,6.06-1,7a9.85,9.85,0,0,0,19.49,2.76c.15-.89.57-3.37,1-6.89,2-11.43,6.71-28.2,14.13-32.91,1.36-.86,3.18-1.59,6.57-.4,4.09,1.43,5.15,3.28,5.63,4.9,2.71,9.14-7.87,28.49-16.24,39.3a9.85,9.85,0,0,0,2.88,14.58c.45.26,42.69,25.33,44.16,93.67-8-.79-15.4-2.05-21-4.19a153.74,153.74,0,0,1-14.56-7.27c-20.86-11.15-46.8-25-65.37-14.86-9.48,5.2-14.86,15.49-16,30.59-3.83,50.59-8,58.44-37.77,57.1C188.09,204,164.58,142,228.8,86.26Zm-134,123.51c6.8-7,11.69-12,14.58-16.09,14.57-20.67,15.35-57.8,15.07-71.89,11.1-6.91,37.72-11.16,56.55-7.78-29.22,54.77-4.46,108.42,12.68,135.23a50.62,50.62,0,0,1-35.56,30.16C81.43,297.17,40.46,343.11,24,387.64,3.67,303.6,64,241.33,94.81,209.77ZM448,622.71c-21.68,40.8-64.19,61.43-124.93,60.4-105.94-1.26-173.55-50.75-211.63-92.06C53.8,528.47,33.27,453.57,35.08,427.38c3.25-46.55,38.6-108.2,127.51-128.81,29.91-6.94,43.46-28.74,48.71-40.45,47.49.45,52.63-27.28,56.25-75.27.41-5.54,1.77-12.6,5.83-14.83C282.64,163,306,175.49,320,183c6.56,3.52,12.23,6.55,16.85,8.31,10.15,3.87,23.56,5.54,37.32,6.17.07,0,.12,0,.19,0l.15,0c16.42.73,33.3,0,45.92-.66,5.53.51,20.86,20.85,20.89,40,0,10-4.28,14.67-14.33,15.61-31.3,2.94-55,7.27-76.77,14-58.5,18.21-85.92,38.9-81.5,61.5,6.42,32.86,78.7,44.62,148.81,39.69C449.9,418.93,487.84,547.9,448,622.71Zm-163-205.32c-13.62,0-29.25,10.31-34.77,20.3-4.76-10.47-21-20.3-34.7-20.3a48.39,48.39,0,0,0-48.45,48.44c0,56.48,83.15,90,83.15,90s83.13-33.54,83.13-90A48.36,48.36,0,0,0,285.07,417.39Z"/></g></g></svg>