
        <svg xmlns="http://www.w3.org/2000/svg" xmlns:xlink="http://www.w3.org/1999/xlink" version="1.1" width="3146.4186782746337" 
        height="1068.8563514048278" viewBox="0 0 3146.4186782746337 1068.8563514048278">
			
			<g transform="scale(7.3209339137316976) translate(10, 10)">
				<defs id="SvgjsDefs1845"></defs><g id="SvgjsG1846" featureKey="symbolContainer" transform="matrix(1,0,0,1,0,0)" fill="#f2f2f2"><rect width="106" height="126" rx="10"></rect></g><g id="SvgjsG1847" featureKey="symbolFeature-0" transform="matrix(1.7920139651088296,0,0,1.7920139651088296,-37.15087213277307,-26.601050758188528)" fill="#3fc1c9"><path xmlns="http://www.w3.org/2000/svg" d="M64.727,50.043c-0.006-0.008-0.011-0.016-0.017-0.024c-1.801-2.603-3.432-4.403-4.423-5.405  c1.231-0.295,2.606-0.507,4.292-0.665c1.625-0.153,2.56-1.291,2.44-2.968c-0.136-1.909-1.602-4.26-3.129-4.26  c-0.024,0-0.048,0-0.071,0.001c-0.686,0.033-1.641,0.077-2.61,0.066c-0.059-4.647-2.299-7.089-3.457-8.04  c0.582-0.891,1.412-2.458,1.043-3.708c-0.133-0.45-0.479-1.053-1.372-1.365c-0.642-0.224-1.262-0.161-1.801,0.18  c-0.24,0.153-0.451,0.357-0.634,0.593c-0.096-0.192-0.21-0.371-0.349-0.529c-0.433-0.493-1.029-0.736-1.737-0.701  c-0.74,0.036-1.351,0.349-1.766,0.904c-0.116,0.155-0.212,0.325-0.292,0.503c-0.122-0.12-0.253-0.221-0.392-0.306  c-0.354-0.216-0.943-0.42-1.743-0.161c-0.636,0.207-1.095,0.628-1.326,1.219c-0.468,1.193,0.138,2.823,0.53,3.67  c-0.538,0.506-0.975,1.02-1.363,1.534c-1.886-0.56-5.236-0.193-6.463,1.033c-0.15,0.15-0.23,0.358-0.219,0.571  c0.052,0.956-0.003,3.706-0.863,4.926c-0.151,0.214-0.526,0.599-0.959,1.043c-2.616,2.683-8.725,8.953-4.96,17.396  c-0.003,0.044-0.012,0.09-0.015,0.134c-0.179,2.569,1.673,8.668,6.216,13.597c3.102,3.365,8.607,7.398,17.216,7.5  c0.088,0.001,0.174,0.002,0.261,0.002c5.131-0.001,8.698-1.816,10.604-5.4C70.822,64.892,67.487,54.051,64.727,50.043z   M62.708,49.796c-5.53,0.25-8.696-1.027-8.861-1.87c-0.083-0.427,0.824-1.553,4.777-2.837  C59.265,45.692,60.851,47.277,62.708,49.796z M49.332,29.79c0.269-0.233,0.336-0.623,0.163-0.933  c-0.357-0.639-1.002-2.195-0.714-2.93c0.047-0.12,0.131-0.255,0.392-0.339c0.276-0.09,0.413-0.04,0.5,0.014  c0.218,0.133,0.605,0.584,0.926,2.105c0.054,0.371,0.115,0.637,0.136,0.719c0.095,0.392,0.489,0.636,0.878,0.558  c0.396-0.081,0.656-0.459,0.591-0.857c-0.04-0.244-0.083-0.475-0.129-0.694c-0.113-0.84-0.113-1.905,0.266-2.412  c0.099-0.131,0.26-0.284,0.637-0.303c0.303-0.018,0.444,0.088,0.535,0.191c0.397,0.452,0.446,1.605,0.354,2.505  c-0.046,0.269-0.067,0.462-0.074,0.533c-0.041,0.4,0.242,0.762,0.641,0.818c0.404,0.057,0.771-0.212,0.844-0.608  c0.012-0.068,0.044-0.257,0.074-0.525c0.151-0.871,0.512-2.15,1.077-2.509c0.104-0.065,0.243-0.121,0.501-0.03  c0.312,0.109,0.393,0.25,0.429,0.373c0.207,0.697-0.6,2.172-1.238,2.996c-0.133,0.172-0.185,0.393-0.143,0.606  c0.043,0.213,0.175,0.397,0.363,0.505c0.034,0.02,3.254,1.931,3.366,7.14c-0.61-0.06-1.174-0.156-1.603-0.319  c-0.263-0.1-0.675-0.32-1.11-0.554c-1.59-0.85-3.567-1.91-4.983-1.133c-0.722,0.396-1.132,1.181-1.219,2.332  c-0.292,3.856-0.612,4.454-2.879,4.352C46.229,38.765,44.437,34.039,49.332,29.79z M39.119,39.204  c0.518-0.531,0.891-0.914,1.111-1.226c1.111-1.576,1.17-4.406,1.149-5.48c0.846-0.527,2.875-0.851,4.31-0.593  c-2.227,4.175-0.34,8.264,0.967,10.308c-0.245,0.585-0.971,1.895-2.711,2.299c-5.846,1.354-8.969,4.856-10.225,8.25  C32.172,46.356,36.772,41.61,39.119,39.204z M66.043,70.68c-1.653,3.11-4.893,4.683-9.523,4.604  c-8.075-0.096-13.229-3.868-16.131-7.017c-4.396-4.77-5.961-10.479-5.823-12.476c0.248-3.548,2.942-8.247,9.719-9.818  c2.28-0.529,3.313-2.191,3.713-3.083c3.62,0.034,4.012-2.08,4.288-5.738c0.031-0.422,0.135-0.96,0.444-1.13  c0.706-0.385,2.487,0.569,3.554,1.141c0.5,0.268,0.932,0.499,1.284,0.633c0.774,0.295,1.796,0.423,2.845,0.471  c0.005,0,0.009,0.003,0.014,0.003c0.004,0,0.008-0.002,0.012-0.002c1.251,0.056,2.538-0.002,3.5-0.05  c0.421,0.039,1.59,1.589,1.592,3.048c0,0.762-0.326,1.118-1.092,1.19c-2.386,0.224-4.191,0.554-5.852,1.07  c-4.459,1.388-6.549,2.965-6.212,4.688c0.489,2.505,5.999,3.401,11.343,3.025C66.185,55.147,69.077,64.978,66.043,70.68z   M53.621,55.03c-1.038,0-2.229,0.786-2.65,1.547c-0.363-0.798-1.603-1.547-2.645-1.547c-2.047,0-3.693,1.653-3.693,3.692  c0,4.305,6.338,6.86,6.338,6.86s6.336-2.556,6.336-6.86C57.313,56.684,55.658,55.03,53.621,55.03z"></path></g><g id="SvgjsG1848" featureKey="nameFeature-0" transform="matrix(2.20080312324912,0,0,2.20080312324912,124.10818738864664,5.940273202135025)" fill="#f2f2f2"><path d="M22.871 29.628999999999998 l0 5.0195 l-3.3984 0 l0 5.3516 l-5.625 0 l0 -5.3516 l-12.988 0 l0 -5.0391 l10 -17.832 l8.6133 0 l0 17.852 l3.3984 0 z M6.0742 29.628999999999998 l7.7734 0 l0 -14.473 z M40.03871875 40.39063 c-8.3008 0 -14.434 -5.6445 -14.434 -14.512 s6.1328 -14.492 14.434 -14.492 c6.2891 0 11.328 3.2227 13.34 8.5742 l-5.4688 1.9922 c-1.25 -3.2813 -4.2383 -5.1758 -7.8711 -5.1758 c-4.8633 0 -8.5938 3.3984 -8.5938 9.1016 s3.7305 9.1211 8.5938 9.1211 c3.6328 0 6.6211 -1.9141 7.8711 -5.1953 l5.4688 1.9922 c-2.0117 5.3516 -7.0508 8.5938 -13.34 8.5938 z M77.07025 40 l-2.0508 -5.8203 l-11.855 0 l-2.0508 5.8203 l-5.9961 0 l10.391 -28.223 l7.168 0 l10.391 28.223 l-5.9961 0 z M64.88325 29.277 l8.418 0 l-4.1992 -11.973 z M102.20734375 40 l-7.3438 -12.422 l-1.6992 0 l0 12.422 l-5.8594 0 l0 -28.223 l10.234 0 c6.3867 0 9.082 3.7695 9.082 8.4375 c0 3.7891 -2.1484 6.25 -5.9766 7.0703 l8.4961 12.715 l-6.9336 0 z M93.16404375 16.641 l0 6.7383 l3.457 0 c3.125 0 4.3945 -1.3281 4.3945 -3.3594 c0 -2.0117 -1.2695 -3.3789 -4.3945 -3.3789 l-3.457 0 z M129.80515625 16.934 l-10.469 0 l0 6.4063 l9.2773 0 l0 5.0977 l-9.2773 0 l0 6.3867 l10.469 0 l0 5.1758 l-16.367 0 l0 -28.223 l16.367 0 l0 5.1563 z"></path></g>
			</g>
		</svg>
	