<svg width="40" height="40" viewBox="0 0 40 40" fill="none" xmlns="http://www.w3.org/2000/svg">
<path d="M25.8334 8.33325C28.1741 8.33325 29.3445 8.33325 30.1853 8.89502C30.5492 9.13821 30.8617 9.45072 31.1049 9.81468C31.6667 10.6554 31.6667 11.8258 31.6667 14.1666V29.9999C31.6667 33.1426 31.6667 34.714 30.6904 35.6903C29.7141 36.6666 28.1427 36.6666 25 36.6666H15C11.8573 36.6666 10.286 36.6666 9.30968 35.6903C8.33337 34.714 8.33337 33.1426 8.33337 29.9999V14.1666C8.33337 11.8258 8.33337 10.6554 8.89514 9.81468C9.13834 9.45072 9.45084 9.13821 9.81481 8.89502C10.6556 8.33325 11.8259 8.33325 14.1667 8.33325" stroke="white" stroke-width="3.33333"/>
<path d="M15 8.33333C15 6.49238 16.4924 5 18.3333 5H21.6667C23.5076 5 25 6.49238 25 8.33333C25 10.1743 23.5076 11.6667 21.6667 11.6667H18.3333C16.4924 11.6667 15 10.1743 15 8.33333Z" stroke="white" stroke-width="3.33333"/>
<path d="M15 20L25 20" stroke="white" stroke-width="3.33333" stroke-linecap="round"/>
<path d="M15 26.6667L21.6667 26.6667" stroke="white" stroke-width="3.33333" stroke-linecap="round"/>
</svg>
