<svg width="40" height="40" viewBox="0 0 40 40" fill="none" xmlns="http://www.w3.org/2000/svg">
<path d="M7.21159 11.0634L8.6966 11.8201L8.6966 11.8201L7.21159 11.0634ZM7.94698 33.7196L6.76847 32.5411L6.76847 32.5411L7.94698 33.7196ZM30.6032 27.7884L29.8466 26.3034L29.8466 26.3034L30.6032 27.7884ZM32.7883 25.6033L31.3033 24.8467L31.3033 24.8467L32.7883 25.6033ZM32.7883 11.0634L31.3033 11.8201L31.3033 11.8201L32.7883 11.0634ZM30.6032 8.87834L29.8466 10.3634L29.8466 10.3634L30.6032 8.87834ZM9.39667 8.87834L10.1533 10.3634L10.1533 10.3634L9.39667 8.87834ZM8.33329 16.3334C8.33329 14.9057 8.33459 13.9353 8.39588 13.1851C8.45558 12.4544 8.56379 12.0807 8.6966 11.8201L5.72658 10.3068C5.31443 11.1157 5.15016 11.9768 5.07362 12.9137C4.99866 13.831 4.99996 14.9607 4.99996 16.3334H8.33329ZM8.33329 28.3334V16.3334H4.99996V28.3334H8.33329ZM4.99999 28.3334V33.1893H8.33332V28.3334H4.99999ZM4.99999 33.1893C4.99999 35.3423 7.60307 36.4206 9.1255 34.8981L6.76847 32.5411C7.34594 31.9636 8.33332 32.3726 8.33332 33.1893H4.99999ZM9.12549 34.8981L14.0236 30L11.6666 27.643L6.76847 32.5411L9.12549 34.8981ZM25.3333 26.6667H14.0236V30H25.3333V26.6667ZM29.8466 26.3034C29.5859 26.4362 29.2123 26.5444 28.4816 26.6041C27.7314 26.6654 26.7609 26.6667 25.3333 26.6667V30C26.7059 30 27.8356 30.0013 28.753 29.9264C29.6898 29.8498 30.551 29.6856 31.3599 29.2734L29.8466 26.3034ZM31.3033 24.8467C30.9837 25.4739 30.4738 25.9838 29.8466 26.3034L31.3599 29.2734C32.6143 28.6343 33.6342 27.6144 34.2733 26.36L31.3033 24.8467ZM31.6666 20.3334C31.6666 21.761 31.6653 22.7315 31.604 23.4816C31.5443 24.2123 31.4361 24.586 31.3033 24.8467L34.2733 26.36C34.6855 25.5511 34.8498 24.6899 34.9263 23.7531C35.0013 22.8357 35 21.706 35 20.3334H31.6666ZM31.6666 16.3334V20.3334H35V16.3334H31.6666ZM31.3033 11.8201C31.4361 12.0807 31.5443 12.4544 31.604 13.1851C31.6653 13.9353 31.6666 14.9057 31.6666 16.3334H35C35 14.9607 35.0013 13.831 34.9263 12.9137C34.8498 11.9768 34.6855 11.1157 34.2733 10.3068L31.3033 11.8201ZM29.8466 10.3634C30.4738 10.6829 30.9837 11.1929 31.3033 11.8201L34.2733 10.3068C33.6342 9.05236 32.6143 8.03249 31.3599 7.39333L29.8466 10.3634ZM25.3333 10C26.7609 10 27.7314 10.0013 28.4816 10.0626C29.2123 10.1223 29.5859 10.2305 29.8466 10.3634L31.3599 7.39333C30.551 6.98118 29.6898 6.81691 28.753 6.74036C27.8356 6.66541 26.7059 6.66671 25.3333 6.66671V10ZM14.6666 10H25.3333V6.66671H14.6666V10ZM10.1533 10.3634C10.414 10.2305 10.7877 10.1223 11.5184 10.0626C12.2685 10.0013 13.239 10 14.6666 10V6.66671C13.294 6.66671 12.1643 6.66541 11.2469 6.74036C10.3101 6.81691 9.44892 6.98118 8.64002 7.39333L10.1533 10.3634ZM8.6966 11.8201C9.01618 11.1929 9.52612 10.6829 10.1533 10.3634L8.64002 7.39333C7.38561 8.03249 6.36574 9.05236 5.72658 10.3068L8.6966 11.8201ZM14.0236 30L14.0236 30V26.6667C13.1395 26.6667 12.2917 27.0179 11.6666 27.643L14.0236 30ZM6.66664 30C5.74617 30 4.99999 29.2539 4.99999 28.3334H8.33332C8.33332 27.4129 7.58712 26.6667 6.66664 26.6667V30ZM4.99996 28.3334C4.99996 29.2538 5.74616 30 6.66664 30V26.6667C7.58711 26.6667 8.33329 27.4129 8.33329 28.3334H4.99996Z" fill="white"/>
<path d="M13.3334 15L26.6667 15" stroke="white" stroke-width="3.33333" stroke-linecap="round" stroke-linejoin="round"/>
<path d="M13.3334 21.6666L21.6667 21.6666" stroke="white" stroke-width="3.33333" stroke-linecap="round" stroke-linejoin="round"/>
</svg>
