<svg width="40" height="40" viewBox="0 0 40 40" fill="none" xmlns="http://www.w3.org/2000/svg">
<path d="M23.5603 5.60235L21.9019 5.76818L21.9019 5.76819L23.5603 5.60235ZM23.3063 4.23592L24.7876 3.47193L24.7876 3.47193L23.3063 4.23592ZM24.0518 8.02984L25.3769 7.01898L25.3769 7.01898L24.0518 8.02984ZM25.5992 8.67076L25.3769 7.01898L25.3769 7.01898L25.5992 8.67076ZM27.6632 7.30185L28.7186 8.59178L28.7186 8.59178L27.6632 7.30185ZM28.8089 6.51528L28.3017 4.92766L28.3017 4.92766L28.8089 6.51528ZM29.9788 6.57363L29.3161 8.10289L29.3161 8.1029L29.9788 6.57363ZM31.0405 7.4703L32.219 6.29179L32.219 6.29179L31.0405 7.4703ZM32.5297 8.95943L33.7082 7.78091L33.7082 7.78091L32.5297 8.95943ZM32.5297 8.95944L33.7082 7.78093L33.7082 7.78093L32.5297 8.95944ZM33.4263 10.0212L34.9556 9.35858L34.9556 9.35857L33.4263 10.0212ZM33.4847 11.1911L31.8971 10.6839L31.8971 10.6839L33.4847 11.1911ZM32.6981 12.3368L31.4082 11.2814L31.4082 11.2814L32.6981 12.3368ZM31.3292 14.4009L29.6774 14.1787L29.6774 14.1787L31.3292 14.4009ZM31.9701 15.9482L30.9592 17.2733L30.9592 17.2733L31.9701 15.9482ZM34.3976 16.4397L34.5635 14.7813L34.5635 14.7813L34.3976 16.4397ZM35.764 16.6937L35 18.1749L35 18.1749L35.764 16.6937ZM36.55 17.5621L38.0999 16.9493L38.0999 16.9493L36.55 17.5621ZM36.55 22.4376L38.1 23.0503L38.1 23.0503L36.55 22.4376ZM35.7639 23.3063L36.5278 24.7876L36.5278 24.7876L35.7639 23.3063ZM34.3978 23.5602V25.2268H34.4809L34.5636 25.2186L34.3978 23.5602ZM34.3978 23.5602V21.8935H34.3146L34.2319 21.9018L34.3978 23.5602ZM31.9709 24.0515L30.9603 22.7262L30.9603 22.7262L31.9709 24.0515ZM31.3298 25.5993L32.9815 25.3768L32.9815 25.3768L31.3298 25.5993ZM32.6983 27.6626L31.4084 28.718L31.4084 28.718L32.6983 27.6626ZM33.4847 28.8079L35.0722 28.3006L35.0722 28.3006L33.4847 28.8079ZM33.4263 29.9782L34.9555 30.641L34.9555 30.641L33.4263 29.9782ZM29.9788 33.4256L30.6415 34.9549L30.6415 34.9549L29.9788 33.4256ZM28.809 33.4839L28.3018 35.0715L28.3018 35.0715L28.809 33.4839ZM27.6632 32.6974L28.7186 31.4074L28.7186 31.4074L27.6632 32.6974ZM25.5992 31.3284L25.8214 29.6767L25.8214 29.6767L25.5992 31.3284ZM24.0519 31.9694L22.7268 30.9585L22.7268 30.9585L24.0519 31.9694ZM23.5603 34.3971L21.9019 34.2313L21.9019 34.2313L23.5603 34.3971ZM23.3062 35.7641L24.7874 36.5282L24.7874 36.5282L23.3062 35.7641ZM22.438 36.5498L23.051 38.0996L23.051 38.0996L22.438 36.5498ZM17.5622 36.5498L18.175 34.9999L18.175 34.9999L17.5622 36.5498ZM16.6938 35.7639L15.2125 36.5279L15.2125 36.5279L16.6938 35.7639ZM16.4398 34.3975L18.0982 34.2317L18.0982 34.2317L16.4398 34.3975ZM15.9483 31.97L17.2734 30.9591L17.2734 30.9591L15.9483 31.97ZM14.401 31.3291L14.1788 29.6773L14.1788 29.6773L14.401 31.3291ZM12.3369 32.6981L11.2815 31.4081L11.2815 31.4081L12.3369 32.6981ZM11.191 33.4847L10.6839 31.8971L10.6839 31.8971L11.191 33.4847ZM10.0213 33.4264L9.35865 34.9556L9.35865 34.9556L10.0213 33.4264ZM8.9594 32.5296L7.78089 33.7081L7.78089 33.7081L8.9594 32.5296ZM7.47034 31.0406L6.29183 32.2191L6.29183 32.2191L7.47034 31.0406ZM6.57362 29.9787L5.04433 30.6413L5.04433 30.6413L6.57362 29.9787ZM6.51527 28.8089L4.92765 28.3018L4.92765 28.3018L6.51527 28.8089ZM7.3019 27.6631L6.086 26.5232L6.04756 26.5642L6.01197 26.6077L7.3019 27.6631ZM7.30191 27.6631L8.51781 28.803L8.55625 28.762L8.59184 28.7185L7.30191 27.6631ZM8.67086 25.599L10.3227 25.8212L10.3227 25.8212L8.67086 25.599ZM8.02996 24.0517L7.01907 25.3768L7.01907 25.3768L8.02996 24.0517ZM5.60244 23.5602L5.4366 25.2186L5.4366 25.2186L5.60244 23.5602ZM4.23605 23.3062L3.47206 24.7875L3.47207 24.7875L4.23605 23.3062ZM3.45012 22.4378L5.00004 21.825L5.00004 21.825L3.45012 22.4378ZM3.45018 17.562L5.00004 18.1749L5.00004 18.1749L3.45018 17.562ZM4.23592 16.6937L5.00004 18.1749L5.00004 18.1749L4.23592 16.6937ZM5.60262 16.4397L5.76846 18.0981L5.76846 18.0981L5.60262 16.4397ZM8.03071 15.948L7.01964 14.623L7.01964 14.623L8.03071 15.948ZM8.67146 14.401L7.01964 14.623L7.01964 14.623L8.67146 14.401ZM7.30216 12.3363L6.01223 13.3917L6.01223 13.3917L7.30216 12.3363ZM6.51527 11.1901L4.92758 11.697L4.92758 11.697L6.51527 11.1901ZM6.57359 10.0207L8.10296 10.6831L8.10296 10.6831L6.57359 10.0207ZM7.47059 8.95846L6.29207 7.77995L6.29207 7.77995L7.47059 8.95846ZM7.47059 8.95846L6.29208 7.77995L6.29208 7.77995L7.47059 8.95846ZM8.95946 7.46959L10.138 8.6481L10.138 8.6481L8.95946 7.46959ZM10.0213 6.57285L9.35871 5.04356L9.35871 5.04356L10.0213 6.57285ZM11.1911 6.51451L10.6839 8.10214L10.6839 8.10214L11.1911 6.51451ZM12.337 7.30124L13.3924 6.01131L13.3924 6.01131L12.337 7.30124ZM14.4008 8.67009L14.6232 7.01834L14.6232 7.01834L14.4008 8.67009ZM15.9485 8.02903L17.2737 9.03972L17.2737 9.03972L15.9485 8.02903ZM16.4398 5.60212L18.0982 5.76796L18.1065 5.68525V5.60212H16.4398ZM16.4398 5.60212L14.7814 5.43628L14.7732 5.51899V5.60212H16.4398ZM16.6937 4.23608L15.2124 3.47223L15.2124 3.47224L16.6937 4.23608ZM17.5624 3.44994L16.9497 1.89996L16.9497 1.89996L17.5624 3.44994ZM22.4379 3.45L21.8251 4.99992L21.8251 4.99992L22.4379 3.45ZM25.2187 5.43651C25.1848 5.09713 25.1521 4.76149 25.1044 4.47792C25.0541 4.17797 24.9714 3.82832 24.7876 3.47193L21.8251 4.99992C21.7868 4.92573 21.795 4.89788 21.8171 5.02989C21.842 5.17828 21.8636 5.38475 21.9019 5.76818L25.2187 5.43651ZM25.3769 7.01898C25.4824 7.15718 25.4488 7.21832 25.3903 6.89321C25.3347 6.58403 25.2899 6.14854 25.2187 5.43651L21.9019 5.76819C21.9675 6.42427 22.0253 7.01487 22.1097 7.48358C22.1912 7.93636 22.335 8.52718 22.7267 9.0407L25.3769 7.01898ZM25.3769 7.01898L25.3769 7.01898L22.7267 9.0407C23.4531 9.99289 24.6344 10.4822 25.8214 10.3226L25.3769 7.01898ZM26.6078 6.01193C26.054 6.46505 25.7144 6.74132 25.4564 6.9206C25.1852 7.10911 25.2047 7.04215 25.3769 7.01898L25.8214 10.3226C26.4615 10.2364 26.9809 9.92035 27.3587 9.65781C27.7498 9.38603 28.2083 9.00931 28.7186 8.59178L26.6078 6.01193ZM28.3017 4.92766C27.9197 5.04969 27.614 5.23845 27.3663 5.41492C27.1322 5.58176 26.8717 5.79596 26.6078 6.01193L28.7186 8.59178C29.0168 8.34778 29.178 8.21701 29.3005 8.1297C29.4095 8.05204 29.3956 8.07749 29.3161 8.10289L28.3017 4.92766ZM30.6414 5.04436C29.9013 4.72366 29.07 4.6822 28.3017 4.92766L29.3161 8.10289L29.3161 8.10289L30.6414 5.04436ZM32.219 6.29179C31.9779 6.05063 31.74 5.81158 31.5236 5.62227C31.2947 5.42202 31.0093 5.20378 30.6414 5.04435L29.3161 8.1029C29.2395 8.06971 29.2282 8.043 29.3289 8.13112C29.4422 8.23019 29.5896 8.37635 29.862 8.64881L32.219 6.29179ZM33.7082 7.78091L32.219 6.29179L29.862 8.64881L31.3511 10.1379L33.7082 7.78091ZM33.7082 7.78093L33.7082 7.78091L31.3511 10.1379L31.3512 10.1379L33.7082 7.78093ZM34.9556 9.35857C34.7962 8.99065 34.578 8.70524 34.3777 8.47633C34.1884 8.25992 33.9493 8.02209 33.7082 7.78093L31.3512 10.1379C31.6236 10.4104 31.7698 10.5578 31.8689 10.671C31.957 10.7718 31.9303 10.7604 31.8971 10.6839L34.9556 9.35857ZM35.0723 11.6982C35.3178 10.9299 35.2763 10.0987 34.9556 9.35858L31.8971 10.6839L31.8971 10.6839L35.0723 11.6982ZM33.988 13.3922C34.204 13.1282 34.4182 12.8678 34.585 12.6336C34.7615 12.3859 34.9503 12.0802 35.0723 11.6982L31.8971 10.6839C31.9225 10.6044 31.9479 10.5904 31.8703 10.6994C31.783 10.822 31.6522 10.9832 31.4082 11.2814L33.988 13.3922ZM32.981 14.6231C32.9578 14.7953 32.8908 14.8148 33.0793 14.5436C33.2586 14.2856 33.5349 13.946 33.988 13.3922L31.4082 11.2814C30.9906 11.7917 30.6139 12.2502 30.3421 12.6413C30.0796 13.0191 29.7635 13.5385 29.6774 14.1787L32.981 14.6231ZM32.981 14.6231L32.981 14.6231L29.6774 14.1787C29.5177 15.3656 30.0071 16.5469 30.9592 17.2733L32.981 14.6231ZM34.5635 14.7813C33.8514 14.7101 33.4159 14.6653 33.1067 14.6097C32.7816 14.5512 32.8428 14.5176 32.981 14.6231L30.9592 17.2733C31.4727 17.665 32.0636 17.8088 32.5164 17.8903C32.9851 17.9747 33.5757 18.0325 34.2318 18.0981L34.5635 14.7813ZM36.528 15.2124C36.1716 15.0286 35.822 14.9459 35.522 14.8956C35.2385 14.8479 34.9028 14.8152 34.5635 14.7813L34.2318 18.0981C34.6152 18.1364 34.8217 18.158 34.9701 18.1829C35.1021 18.205 35.0742 18.2132 35 18.1749L36.528 15.2124ZM38.0999 16.9493C37.8033 16.1992 37.2449 15.5822 36.528 15.2124L35 18.1749L35 18.1749L38.0999 16.9493ZM38.3334 18.947C38.3334 18.6059 38.3342 18.2687 38.3151 17.9818C38.2948 17.6783 38.2473 17.3222 38.0999 16.9493L35 18.1749C34.9693 18.0973 34.9802 18.0704 34.9892 18.204C34.9992 18.3541 35 18.5617 35 18.947H38.3334ZM38.3334 21.0531V18.947H35V21.0531H38.3334ZM38.1 23.0503C38.2474 22.6775 38.2948 22.3214 38.3151 22.018C38.3342 21.7312 38.3334 21.3941 38.3334 21.0531H35C35 21.4383 34.9992 21.6458 34.9892 21.7959C34.9802 21.9295 34.9694 21.9026 35 21.825L38.1 23.0503ZM36.5278 24.7876C37.2448 24.4178 37.8034 23.8006 38.1 23.0503L35 21.825L35 21.825L36.5278 24.7876ZM34.5636 25.2186C34.9029 25.1846 35.2385 25.1519 35.522 25.1043C35.8219 25.054 36.1714 24.9713 36.5278 24.7876L35 21.825C35.0742 21.7867 35.1021 21.7949 34.9701 21.817C34.8217 21.8419 34.6153 21.8634 34.2319 21.9018L34.5636 25.2186ZM34.3978 25.2268H34.3978V21.8935H34.3978V25.2268ZM32.9815 25.3768C32.8434 25.4822 32.7822 25.4486 33.1073 25.3901C33.4164 25.3345 33.8518 25.2898 34.5636 25.2186L34.2319 21.9018C33.576 21.9674 32.9856 22.0252 32.517 22.1095C32.0644 22.1909 31.4737 22.3347 30.9603 22.7262L32.9815 25.3768ZM32.9815 25.3768L32.9815 25.3768L30.9603 22.7262C30.0076 23.4526 29.5181 24.6345 29.678 25.8218L32.9815 25.3768ZM33.9883 26.6072C33.5353 26.0536 33.2591 25.7141 33.0799 25.4562C32.8914 25.1851 32.9583 25.2046 32.9815 25.3768L29.678 25.8218C29.7642 26.4617 30.0802 26.9809 30.3427 27.3586C30.6144 27.7495 30.991 28.2079 31.4084 28.718L33.9883 26.6072ZM35.0722 28.3006C34.9502 27.9187 34.7615 27.6131 34.5851 27.3655C34.4183 27.1314 34.2042 26.8711 33.9883 26.6072L31.4084 28.718C31.6523 29.0161 31.7831 29.1773 31.8703 29.2998C31.948 29.4087 31.9225 29.3948 31.8971 29.3153L35.0722 28.3006ZM34.9555 30.641C35.2764 29.9007 35.3179 29.0691 35.0722 28.3006L31.8971 29.3153L31.8971 29.3153L34.9555 30.641ZM33.7084 32.2181C33.9495 31.977 34.1885 31.7393 34.3777 31.5229C34.5779 31.2941 34.7961 31.0088 34.9555 30.641L31.8971 29.3153C31.9303 29.2388 31.957 29.2275 31.8689 29.3282C31.7699 29.4414 31.6238 29.5887 31.3514 29.8611L33.7084 32.2181ZM32.2191 33.7074L33.7084 32.2181L31.3514 29.8611L29.8621 31.3504L32.2191 33.7074ZM30.6415 34.9549C31.0094 34.7954 31.2948 34.5772 31.5237 34.3769C31.7401 34.1876 31.9779 33.9486 32.2191 33.7074L29.8621 31.3504C29.5896 31.6229 29.4422 31.769 29.329 31.8681C29.2283 31.9562 29.2396 31.9295 29.3162 31.8963L30.6415 34.9549ZM28.3018 35.0715C29.0701 35.317 29.9014 35.2755 30.6415 34.9549L29.3162 31.8963L29.3162 31.8963L28.3018 35.0715ZM26.6078 33.9873C26.8718 34.2032 27.1322 34.4174 27.3664 34.5843C27.6141 34.7608 27.9198 34.9495 28.3018 35.0715L29.3162 31.8963C29.3957 31.9217 29.4096 31.9472 29.3006 31.8695C29.1781 31.7822 29.0169 31.6514 28.7186 31.4074L26.6078 33.9873ZM25.377 32.9802C25.2047 32.9571 25.1852 32.8901 25.4565 33.0786C25.7144 33.2579 26.054 33.5342 26.6078 33.9873L28.7186 31.4074C28.2083 30.9899 27.7498 30.6132 27.3588 30.3414C26.981 30.0789 26.4615 29.7628 25.8214 29.6767L25.377 32.9802ZM25.377 32.9802L25.377 32.9802L25.8214 29.6767C24.6345 29.517 23.4531 30.0063 22.7268 30.9585L25.377 32.9802ZM25.2187 34.563C25.2899 33.8509 25.3347 33.4153 25.3904 33.106C25.4489 32.7809 25.4825 32.842 25.377 32.9802L22.7268 30.9585C22.335 31.472 22.1912 32.0629 22.1097 32.5157C22.0254 32.9845 21.9676 33.5751 21.9019 34.2313L25.2187 34.563ZM24.7874 36.5282C24.9713 36.1717 25.0541 35.822 25.1044 35.5219C25.1521 35.2383 25.1848 34.9025 25.2187 34.563L21.9019 34.2313C21.8636 34.6149 21.8421 34.8215 21.8171 34.9699C21.7949 35.102 21.7868 35.0741 21.8251 34.9999L24.7874 36.5282ZM23.051 38.0996C23.8008 37.8031 24.4177 37.2448 24.7874 36.5282L21.8251 34.9999L21.8251 34.9999L23.051 38.0996ZM21.0528 38.3333C21.3939 38.3333 21.7313 38.3341 22.0182 38.3149C22.3218 38.2947 22.678 38.2471 23.051 38.0996L21.8251 34.9999C21.9027 34.9692 21.9296 34.9801 21.796 34.989C21.6459 34.9991 21.4382 34.9999 21.0528 34.9999V38.3333ZM18.9471 38.3333H21.0528V34.9999H18.9471V38.3333ZM16.9494 38.0997C17.3223 38.2472 17.6785 38.2947 17.9819 38.315C18.2688 38.3341 18.606 38.3333 18.9471 38.3333V34.9999C18.5618 34.9999 18.3542 34.9991 18.2041 34.989C18.0705 34.9801 18.0974 34.9692 18.175 34.9999L16.9494 38.0997ZM15.2125 36.5279C15.5823 37.2447 16.1994 37.8032 16.9494 38.0998L18.175 34.9999L18.175 34.9999L15.2125 36.5279ZM14.7814 34.5634C14.8154 34.9027 14.8481 35.2384 14.8957 35.5219C14.946 35.8219 15.0287 36.1715 15.2125 36.5279L18.175 34.9999C18.2133 35.0741 18.2051 35.1019 18.183 34.9699C18.1581 34.8216 18.1366 34.6151 18.0982 34.2317L14.7814 34.5634ZM14.6232 32.9809C14.5177 32.8427 14.5513 32.7815 14.6098 33.1066C14.6654 33.4158 14.7102 33.8513 14.7814 34.5634L18.0982 34.2317C18.0326 33.5756 17.9748 32.985 17.8904 32.5163C17.8089 32.0635 17.6651 31.4726 17.2734 30.9591L14.6232 32.9809ZM14.6232 32.9809L14.6232 32.9809L17.2734 30.9591C16.547 30.007 15.3657 29.5176 14.1788 29.6773L14.6232 32.9809ZM13.3923 33.988C13.9461 33.5348 14.2857 33.2586 14.5437 33.0793C14.815 32.8907 14.7955 32.9577 14.6232 32.9809L14.1788 29.6773C13.5387 29.7634 13.0192 30.0795 12.6414 30.342C12.2503 30.6138 11.7918 30.9906 11.2815 31.4081L13.3923 33.988ZM11.6982 35.0723C12.0802 34.9503 12.3859 34.7615 12.6336 34.585C12.8678 34.4182 13.1283 34.204 13.3923 33.988L11.2815 31.4081C10.9832 31.6522 10.822 31.7829 10.6994 31.8703C10.5904 31.9479 10.6044 31.9225 10.6839 31.8971L11.6982 35.0723ZM9.35865 34.9556C10.0987 35.2763 10.9299 35.3177 11.6982 35.0723L10.6839 31.8971L10.6839 31.8971L9.35865 34.9556ZM7.78089 33.7081C8.02207 33.9493 8.25992 34.1884 8.47634 34.3777C8.70526 34.578 8.99069 34.7962 9.35865 34.9556L10.6839 31.8971C10.7605 31.9303 10.7718 31.957 10.671 31.8688C10.5578 31.7698 10.4104 31.6236 10.1379 31.3511L7.78089 33.7081ZM6.29183 32.2191L7.78089 33.7081L10.1379 31.3511L8.64885 29.862L6.29183 32.2191ZM5.04433 30.6413C5.20376 31.0093 5.42201 31.2947 5.62227 31.5236C5.81159 31.74 6.05066 31.9779 6.29183 32.2191L8.64885 29.862C8.37637 29.5896 8.2302 29.4422 8.13113 29.3289C8.043 29.2282 8.06972 29.2395 8.1029 29.3161L5.04433 30.6413ZM4.92765 28.3018C4.68222 29.0701 4.72367 29.9013 5.04433 30.6413L8.1029 29.3161L8.1029 29.3161L4.92765 28.3018ZM6.01197 26.6077C5.79599 26.8717 5.58177 27.1322 5.41493 27.3663C5.23844 27.6141 5.04967 27.9198 4.92765 28.3018L8.1029 29.3161C8.0775 29.3956 8.05204 29.4095 8.12971 29.3005C8.21703 29.178 8.34781 29.0168 8.59183 28.7185L6.01197 26.6077ZM6.08601 26.5232L6.086 26.5232L8.51779 28.803L8.51781 28.803L6.08601 26.5232ZM7.01907 25.3768C7.04225 25.2045 7.1092 25.185 6.92069 25.4563C6.7414 25.7143 6.46512 26.0539 6.01198 26.6077L8.59184 28.7185C9.00938 28.2082 9.38611 27.7497 9.6579 27.3586C9.92045 26.9808 10.2365 26.4613 10.3227 25.8212L7.01907 25.3768ZM7.01907 25.3768L7.01907 25.3768L10.3227 25.8212C10.4823 24.6343 9.99299 23.453 9.04084 22.7266L7.01907 25.3768ZM5.4366 25.2186C6.14864 25.2898 6.58413 25.3346 6.89332 25.3902C7.21842 25.4487 7.15728 25.4823 7.01907 25.3768L9.04084 22.7266C8.52732 22.3349 7.93648 22.1911 7.48369 22.1096C7.01497 22.0252 6.42437 21.9674 5.76828 21.9018L5.4366 25.2186ZM3.47207 24.7875C3.82845 24.9713 4.17809 25.054 4.47804 25.1043C4.7616 25.1519 5.09723 25.1846 5.4366 25.2186L5.76828 21.9018C5.38486 21.8634 5.1784 21.8419 5.03001 21.817C4.89801 21.7949 4.92586 21.7867 5.00004 21.825L3.47207 24.7875ZM1.9002 23.0506C2.19676 23.8006 2.75523 24.4177 3.47206 24.7875L5.00004 21.825L5.00004 21.825L1.9002 23.0506ZM1.66671 21.0529C1.66671 21.394 1.66585 21.7312 1.68501 22.0181C1.70527 22.3215 1.75277 22.6777 1.9002 23.0506L5.00004 21.825C5.03073 21.9026 5.01985 21.9295 5.01093 21.7959C5.0009 21.6458 5.00004 21.4382 5.00004 21.0529H1.66671ZM1.66671 18.9472V21.0529H5.00004V18.9472H1.66671ZM1.90032 16.949C1.75281 17.322 1.70529 17.6782 1.68501 17.9818C1.66584 18.2687 1.66671 18.606 1.66671 18.9472H5.00004C5.00004 18.5617 5.0009 18.3541 5.01093 18.204C5.01986 18.0704 5.03074 18.0973 5.00004 18.1749L1.90032 16.949ZM3.4718 15.2126C2.75518 15.5823 2.19687 16.1992 1.90032 16.949L5.00004 18.1749L5.00004 18.1749L3.4718 15.2126ZM5.43679 14.7813C5.09733 14.8152 4.76162 14.8479 4.47799 14.8956C4.17797 14.9459 3.82824 15.0287 3.47179 15.2126L5.00004 18.1749C4.92585 18.2132 4.89799 18.205 5.03002 18.1829C5.17844 18.158 5.38495 18.1364 5.76846 18.0981L5.43679 14.7813ZM7.01964 14.623C7.15787 14.5175 7.21904 14.5511 6.89386 14.6096C6.5846 14.6653 6.149 14.7101 5.43679 14.7813L5.76846 18.0981C6.42472 18.0325 7.01546 17.9746 7.48429 17.8902C7.93719 17.8087 8.52817 17.6649 9.04177 17.2729L7.01964 14.623ZM7.01964 14.623L7.01964 14.623L9.04177 17.2729C9.99356 16.5466 10.4827 15.3657 10.3233 14.1791L7.01964 14.623ZM6.01223 13.3917C6.46551 13.9457 6.74188 14.2855 6.92121 14.5435C7.10979 14.8149 7.0428 14.7953 7.01964 14.623L10.3233 14.1791C10.2372 13.5388 9.92107 13.0191 9.65846 12.6412C9.3866 12.2501 9.00976 11.7914 8.59209 11.2809L6.01223 13.3917ZM4.92758 11.697C5.0496 12.0792 5.23842 12.385 5.41497 12.6328C5.58187 12.8671 5.79616 13.1276 6.01223 13.3917L8.59209 11.2809C8.34798 10.9826 8.21714 10.8213 8.12979 10.6987C8.05209 10.5896 8.07756 10.6036 8.10296 10.6831L4.92758 11.697ZM5.04422 9.35826C4.72378 10.0981 4.68234 10.929 4.92758 11.697L8.10296 10.6831L8.10296 10.6831L5.04422 9.35826ZM6.29207 7.77995C6.05082 8.02121 5.81167 8.25914 5.62229 8.47563C5.42197 8.70464 5.20366 8.99017 5.04422 9.35826L8.10296 10.6831C8.06978 10.7597 8.04305 10.7711 8.1312 10.6703C8.2303 10.557 8.37652 10.4095 8.6491 10.137L6.29207 7.77995ZM6.29208 7.77995L6.29207 7.77995L8.6491 10.137L8.6491 10.137L6.29208 7.77995ZM7.78095 6.29108L6.29208 7.77995L8.6491 10.137L10.138 8.6481L7.78095 6.29108ZM9.35871 5.04356C8.99076 5.20299 8.70533 5.42125 8.4764 5.62151C8.25998 5.81083 8.02213 6.0499 7.78095 6.29108L10.138 8.6481C10.4105 8.37561 10.5579 8.22944 10.6711 8.13037C10.7718 8.04224 10.7605 8.06896 10.6839 8.10214L9.35871 5.04356ZM11.6982 4.92688C10.93 4.68146 10.0988 4.72292 9.35871 5.04356L10.6839 8.10214L10.6839 8.10214L11.6982 4.92688ZM13.3924 6.01131C13.1284 5.79529 12.8679 5.58105 12.6337 5.41419C12.386 5.2377 12.0803 5.04891 11.6982 4.92688L10.6839 8.10214C10.6044 8.07673 10.5905 8.05127 10.6995 8.12897C10.8221 8.2163 10.9833 8.34711 11.2816 8.59117L13.3924 6.01131ZM14.6232 7.01834C14.7955 7.04153 14.815 7.10847 14.5437 6.91994C14.2858 6.74066 13.9462 6.4644 13.3924 6.01131L11.2816 8.59117C11.7919 9.00866 12.2503 9.38534 12.6413 9.65709C13.019 9.9196 13.5384 10.2357 14.1784 10.3219L14.6232 7.01834ZM14.6232 7.01834L14.6232 7.01834L14.1784 10.3219C15.3656 10.4817 16.5473 9.99225 17.2737 9.03972L14.6232 7.01834ZM14.7814 5.43628C14.7103 6.14813 14.6655 6.58351 14.6099 6.89261C14.5514 7.21764 14.5178 7.15652 14.6232 7.01834L17.2737 9.03972C17.6653 8.52628 17.8091 7.93559 17.8905 7.48292C17.9748 7.01432 18.0326 6.42388 18.0982 5.76796L14.7814 5.43628ZM14.7732 5.60212V5.60212H18.1065V5.60212H14.7732ZM15.2124 3.47224C15.0287 3.82854 14.946 4.1781 14.8957 4.47797C14.8481 4.76145 14.8154 5.097 14.7814 5.43628L18.0982 5.76795C18.1366 5.38463 18.1581 5.17823 18.183 5.02988C18.2051 4.89791 18.2133 4.92575 18.175 4.99992L15.2124 3.47224ZM16.9497 1.89996C16.1994 2.19653 15.5821 2.75516 15.2124 3.47223L18.175 4.99992L18.175 4.99992L16.9497 1.89996ZM18.9469 1.66659C18.6059 1.66659 18.2688 1.66572 17.982 1.68487C17.6786 1.70513 17.3225 1.7526 16.9497 1.89996L18.175 4.99992C18.0974 5.03059 18.0705 5.01972 18.2041 5.0108C18.3541 5.00078 18.5617 4.99992 18.9469 4.99992V1.66659ZM21.053 1.66659H18.9469V4.99992H21.053V1.66659ZM23.0507 1.90009C22.6778 1.75265 22.3217 1.70515 22.0182 1.68488C21.7313 1.66572 21.3941 1.66659 21.053 1.66659V4.99992C21.4383 4.99992 21.6459 5.00078 21.796 5.01081C21.9296 5.01973 21.9027 5.03061 21.8251 4.99992L23.0507 1.90009ZM24.7876 3.47193C24.4178 2.75511 23.8008 2.19665 23.0507 1.90009L21.8251 4.99992L21.8251 4.99992L24.7876 3.47193ZM25 20C25 22.7614 22.7614 25 20 25V28.3333C24.6024 28.3333 28.3333 24.6023 28.3333 20H25ZM20 15C22.7614 15 25 17.2385 25 20H28.3333C28.3333 15.3976 24.6024 11.6666 20 11.6666V15ZM15 20C15 17.2385 17.2386 15 20 15V11.6666C15.3976 11.6666 11.6667 15.3976 11.6667 20H15ZM20 25C17.2386 25 15 22.7614 15 20H11.6667C11.6667 24.6023 15.3976 28.3333 20 28.3333V25Z" fill="white"/>
</svg>
