<svg width="40" height="40" viewBox="0 0 40 40" fill="none" xmlns="http://www.w3.org/2000/svg">
<path d="M30.5882 23.3333H31.6667C33.238 23.3333 34.0237 23.3333 34.5118 22.8451C35 22.357 35 21.5713 35 20V18.3333C35 15.1906 35 13.6192 34.0237 12.6429C33.0474 11.6666 31.476 11.6666 28.3333 11.6666H11.6667C8.52397 11.6666 6.95262 11.6666 5.97631 12.6429C5 13.6192 5 15.1906 5 18.3333V21.6666C5 22.4523 5 22.8451 5.24408 23.0892C5.48816 23.3333 5.88099 23.3333 6.66667 23.3333H9.41176" stroke="white" stroke-width="3.33333"/>
<path d="M10 33.8438L10 20C10 18.4287 10 17.643 10.4882 17.1548C10.9763 16.6667 11.762 16.6667 13.3333 16.6667L26.6667 16.6667C28.238 16.6667 29.0237 16.6667 29.5118 17.1548C30 17.643 30 18.4287 30 20L30 33.8438C30 34.3714 30 34.6352 29.827 34.7599C29.6539 34.8846 29.4037 34.8012 28.9031 34.6344L25.2635 33.4212C25.1329 33.3776 25.0676 33.3559 25 33.3559C24.9324 33.3559 24.8671 33.3776 24.7365 33.4212L20.2635 34.9122C20.1329 34.9557 20.0676 34.9775 20 34.9775C19.9324 34.9775 19.8671 34.9557 19.7365 34.9122L15.2635 33.4212C15.1329 33.3776 15.0676 33.3559 15 33.3559C14.9324 33.3559 14.8671 33.3776 14.7365 33.4212L11.0969 34.6344C10.5963 34.8012 10.3461 34.8846 10.173 34.7599C10 34.6352 10 34.3714 10 33.8438Z" stroke="white" stroke-width="3.33333"/>
<path d="M30 11.6667V9.8C30 8.11984 30 7.27976 29.673 6.63803C29.3854 6.07354 28.9265 5.6146 28.362 5.32698C27.7202 5 26.8802 5 25.2 5H14.8C13.1198 5 12.2798 5 11.638 5.32698C11.0735 5.6146 10.6146 6.07354 10.327 6.63803C10 7.27976 10 8.11984 10 9.8V11.6667" stroke="white" stroke-width="3.33333"/>
<path d="M16.6666 23.3334L21.6666 23.3334" stroke="white" stroke-width="3.33333" stroke-linecap="round"/>
<path d="M16.6666 28.3334L24.1666 28.3334" stroke="white" stroke-width="3.33333" stroke-linecap="round"/>
</svg>
